<?xml version="1.0" standalone="no"?>
<!DOCTYPE svg PUBLIC "-//W3C//DTD SVG 20010904//EN"
 "http://www.w3.org/TR/2001/REC-SVG-20010904/DTD/svg10.dtd">
<svg version="1.0" xmlns="http://www.w3.org/2000/svg"
 width="3358.000000pt" height="2370.000000pt" viewBox="0 0 3358.000000 2370.000000"
 preserveAspectRatio="xMidYMid meet">

<g transform="translate(0.000000,2370.000000) scale(0.100000,-0.100000)"
fill="#000000" stroke="none">
<path d="M16085 23694 c-33 -2 -170 -8 -305 -14 -2011 -87 -3933 -679 -5644
-1738 -545 -338 -1054 -715 -1565 -1161 -197 -171 -808 -780 -1008 -1003
-1328 -1482 -2274 -3338 -2697 -5293 -113 -526 -178 -975 -238 -1655 -18 -203
-18 -1445 0 -1665 130 -1595 506 -2979 1178 -4340 699 -1416 1665 -2659 2889
-3715 524 -453 1187 -919 1840 -1292 204 -117 822 -428 1048 -527 1056 -464
2193 -772 3337 -905 548 -64 887 -80 1535 -73 487 5 650 14 1030 52 1685 172
3282 695 4747 1556 1100 647 2100 1486 2942 2468 2061 2403 3050 5504 2765
8666 -131 1463 -516 2828 -1165 4135 -686 1384 -1613 2587 -2784 3615 -1876
1647 -4261 2653 -6755 2850 -353 28 -984 49 -1150 39z m-2390 -4134 c676 -44
1339 -214 2005 -517 426 -193 665 -336 1850 -1108 1224 -797 1670 -1064 2235
-1341 698 -342 1241 -495 1760 -497 268 -1 448 28 700 111 704 232 1333 876
1882 1929 48 92 88 162 91 155 5 -16 -33 -231 -79 -439 -207 -946 -584 -1843
-1055 -2513 -192 -274 -477 -589 -715 -791 -906 -770 -2059 -986 -3414 -639
-374 95 -855 268 -1202 430 l-83 39 0 -1065 c0 -585 2 -1064 5 -1064 3 0 150
-29 327 -65 515 -103 898 -164 1308 -207 195 -20 829 -17 995 5 571 77 1113
271 1807 648 69 38 129 69 132 69 9 0 0 -36 -41 -162 -75 -237 -218 -542 -360
-769 -548 -874 -1403 -1433 -2470 -1613 -318 -53 -418 -61 -858 -60 -405 0
-424 1 -787 41 l-58 6 0 -1674 c0 -1666 -3 -1860 -35 -2107 -78 -593 -302
-1170 -648 -1664 -487 -695 -1230 -1232 -1952 -1409 -131 -32 -314 -59 -401
-59 l-54 0 0 3794 c0 2087 -3 3797 -7 3799 -24 15 -302 31 -518 31 -763 0
-1477 -213 -2671 -794 -136 -66 -248 -120 -250 -120 -11 0 42 299 81 445 179
686 566 1279 1096 1681 550 416 1267 647 2113 681 l163 6 7 106 c8 131 37 338
71 508 144 718 467 1443 904 2027 45 60 80 110 79 111 -6 5 -655 379 -888 512
-1533 876 -2397 1278 -3046 1418 -244 53 -460 72 -634 55 -360 -34 -641 -172
-891 -439 -135 -143 -205 -279 -197 -379 4 -49 10 -60 45 -93 25 -23 61 -44
94 -54 169 -50 492 -18 922 91 98 25 180 44 183 42 8 -8 -338 -1773 -350
-1786 -22 -23 -198 -93 -296 -119 -121 -31 -292 -36 -389 -10 -323 86 -509
410 -560 977 -14 149 -14 493 0 657 54 663 278 1268 653 1766 309 413 724 755
1206 997 642 322 1415 470 2195 420z"/>
</g>
</svg>
