<?xml version="1.0" standalone="no"?>
<!DOCTYPE svg PUBLIC "-//W3C//DTD SVG 20010904//EN"
 "http://www.w3.org/TR/2001/REC-SVG-20010904/DTD/svg10.dtd">
<svg version="1.0" xmlns="http://www.w3.org/2000/svg"
 width="3730.000000pt" height="1975.000000pt" viewBox="0 0 3730.000000 1975.000000"
 preserveAspectRatio="xMidYMid meet">

<g transform="translate(0.000000,1975.000000) scale(0.100000,-0.100000)"
fill="#000000" stroke="none">
<path d="M23955 16374 c-598 -11 -1292 -36 -2205 -79 -289 -14 -641 -28 -783
-32 l-258 -6 -37 35 c-20 20 -53 44 -72 54 -54 27 -187 29 -385 5 -192 -23
-259 -28 -535 -41 -210 -10 -261 -19 -550 -100 -269 -76 -489 -110 -825 -130
-528 -31 -978 -127 -1426 -304 -280 -110 -1196 -363 -1502 -416 -105 -18 -217
-26 -217 -17 0 2 9 38 20 80 42 168 35 320 -17 366 -24 21 -34 23 -82 18 -64
-7 -169 -34 -253 -66 -73 -27 -162 -27 -246 -1 -100 31 -221 22 -307 -22 -29
-16 -31 -15 -85 24 -313 228 -521 306 -870 324 -383 21 -825 -110 -1195 -354
-180 -118 -230 -161 -784 -665 l-44 -40 22 -441 c12 -243 21 -451 21 -462 l0
-21 -47 23 c-50 26 -131 32 -177 14 -63 -23 -172 -155 -196 -237 -11 -37 -10
-46 9 -85 11 -24 21 -56 21 -70 0 -15 19 -85 41 -158 39 -121 41 -135 33 -192
l-9 -61 -84 104 c-104 128 -347 371 -461 463 -239 191 -546 359 -748 410 -62
15 -84 11 -118 -25 -41 -43 -40 -95 4 -146 122 -142 218 -270 313 -412 60 -90
107 -166 105 -168 -14 -15 -563 298 -950 541 -145 91 -175 106 -211 106 -77 0
-135 -78 -114 -154 11 -41 38 -65 226 -195 72 -50 162 -121 200 -157 l68 -66
-50 28 c-181 98 -369 247 -561 441 -138 140 -165 158 -192 131 -18 -18 -15
-39 14 -104 38 -86 215 -486 222 -503 3 -9 1 -12 -6 -7 -7 4 -243 276 -524
604 -853 995 -973 1130 -1020 1144 -81 24 -168 -37 -168 -119 0 -21 25 -90 64
-176 111 -246 202 -507 259 -747 47 -197 57 -192 -90 -50 -245 237 -404 376
-628 545 -317 240 -696 460 -1008 584 -139 55 -147 56 -200 33 -55 -24 -92
-85 -84 -137 3 -17 46 -127 97 -245 l92 -215 -88 -83 c-278 -263 -640 -389
-1016 -353 -164 16 -262 36 -328 69 -30 16 -123 62 -205 104 -364 185 -747
302 -1140 349 -171 21 -502 16 -665 -9 -228 -35 -316 -60 -295 -81 7 -7 50 -5
130 4 142 17 430 19 576 5 599 -60 1198 -306 1744 -719 145 -109 231 -185 403
-355 465 -458 818 -956 1293 -1825 158 -289 171 -305 249 -305 93 0 118 38
160 234 44 210 167 480 296 648 l33 43 20 -68 c11 -37 106 -363 211 -723 105
-360 198 -665 206 -677 16 -26 53 -38 87 -29 12 3 77 56 145 117 104 95 125
110 137 98 14 -15 123 -188 388 -619 93 -151 176 -283 185 -292 21 -25 59 -22
76 5 11 17 12 34 5 77 -20 116 17 290 86 405 41 68 102 145 115 145 5 0 11
-15 15 -32 43 -213 180 -626 301 -912 138 -324 425 -842 477 -860 54 -19 67
-2 162 213 48 111 91 201 94 200 3 0 29 -28 56 -61 156 -192 315 -424 438
-639 69 -120 89 -139 148 -139 22 0 44 13 82 49 29 26 69 54 91 61 113 36 318
-58 462 -213 59 -64 79 -98 184 -312 139 -282 215 -401 323 -507 158 -156 388
-230 482 -156 40 32 48 63 46 183 -2 131 -17 146 149 -145 151 -264 266 -438
362 -550 140 -162 309 -274 483 -321 111 -30 316 -30 513 -1 283 43 441 23
657 -84 178 -89 378 -253 540 -447 47 -56 194 -262 325 -457 330 -490 474
-669 671 -836 290 -246 504 -331 1144 -459 385 -76 560 -127 730 -213 227
-113 399 -284 460 -457 22 -63 56 -95 99 -95 33 0 66 26 79 63 4 10 -27 163
-68 339 -42 176 -73 323 -70 326 8 9 165 -150 230 -233 34 -44 81 -110 103
-146 51 -81 140 -264 148 -306 6 -29 2 -34 -37 -59 -139 -88 -408 -231 -814
-436 -253 -127 -512 -260 -575 -296 -393 -221 -666 -477 -806 -755 -119 -235
-154 -496 -95 -712 26 -94 62 -172 76 -165 13 7 10 31 -16 120 -33 114 -31
300 5 435 31 118 114 291 185 386 85 113 248 260 394 356 174 116 373 216 807
408 423 186 843 392 1031 506 488 293 846 636 1304 1249 281 376 509 630 728
809 175 142 305 214 947 523 388 187 648 382 804 606 l57 81 102 -50 c90 -44
108 -50 150 -46 50 4 88 26 119 68 9 13 55 151 100 306 46 156 86 283 89 283
3 0 26 -29 52 -64 85 -116 142 -144 226 -110 45 18 143 123 209 225 l36 56 34
-24 c41 -27 99 -30 143 -8 71 37 238 377 306 622 15 54 28 100 29 101 1 2 42
-6 90 -18 124 -31 317 -25 449 14 308 92 580 304 777 606 113 173 157 251 318
560 190 364 282 502 455 676 117 118 268 233 444 337 689 409 2472 1416 2778
1569 115 58 128 62 205 66 102 5 134 -6 154 -53 19 -46 54 -69 94 -60 39 9 44
20 64 145 17 100 61 252 89 307 14 25 15 22 62 -88 72 -173 80 -186 120 -199
30 -10 41 -9 73 7 l37 18 99 303 c55 166 103 302 107 302 3 0 12 -15 20 -32 7
-18 36 -83 65 -145 41 -88 58 -115 82 -127 39 -20 95 -20 133 0 36 18 36 18
159 342 51 133 94 241 95 240 1 -2 18 -40 38 -85 49 -115 124 -237 157 -256
33 -20 98 -22 135 -5 15 7 61 62 108 127 486 690 1207 1528 1822 2115 350 334
501 461 722 607 455 299 904 395 1325 283 118 -31 294 -117 376 -184 38 -30
70 -49 79 -46 21 8 1 33 -82 105 -231 200 -583 303 -929 272 -228 -20 -419
-73 -671 -186 -190 -85 -275 -100 -590 -100 -241 0 -298 6 -498 52 l-119 27 8
40 c5 23 9 67 9 98 0 52 -3 60 -35 93 -63 65 -100 65 -269 0 -357 -136 -725
-361 -999 -609 -40 -36 -75 -66 -79 -66 -16 0 6 190 31 263 14 42 26 95 26
116 0 73 -76 129 -152 114 -36 -7 -98 -70 -494 -503 -349 -380 -367 -400 -359
-376 45 143 58 199 48 214 -22 35 -51 26 -125 -42 l-71 -65 -18 39 c-19 42
-69 80 -106 80 -12 0 -166 -72 -343 -160 -191 -96 -317 -153 -311 -143 5 10
25 33 45 52 48 47 61 89 42 134 -20 49 -56 71 -109 65 -110 -13 -410 -170
-568 -298 -85 -68 -248 -231 -285 -284 l-21 -29 -25 79 c-13 43 -23 81 -22 83
2 2 33 -2 70 -9 82 -16 83 -15 114 110 32 128 19 145 -119 162 -84 10 -91 13
-91 33 0 78 -72 180 -156 221 -52 25 -57 31 -91 105 -20 44 -39 79 -43 79 -4
0 -23 -34 -41 -76 -33 -74 -39 -80 -96 -98 l-22 -7 -3 199 c-2 167 -6 203 -19
218 -9 11 -24 41 -32 68 -48 142 -148 234 -300 272 -51 14 -133 17 -457 19
-302 2 -427 6 -530 19 -246 31 -418 77 -510 136 -26 16 -82 68 -124 115 -94
103 -110 109 -336 124 -396 28 -1197 44 -1695 35z m-360 -599 c27 -15 91 -69
142 -118 l93 -90 0 -531 0 -531 -508 -99 c-279 -54 -646 -126 -816 -159 l-308
-60 -84 26 c-46 15 -124 34 -173 43 l-89 18 -6 120 c-4 67 -7 361 -9 654 l-2
532 35 0 c19 0 199 -9 400 -21 l365 -22 94 47 c312 157 541 228 721 223 85 -2
101 -6 145 -32z m-8725 -145 c41 -11 85 -20 96 -20 19 0 23 -9 33 -64 10 -54
31 -127 56 -188 6 -15 2 -18 -28 -18 -52 0 -185 27 -263 54 -82 28 -193 83
-284 140 l-65 41 60 7 c33 3 83 16 110 28 105 46 168 51 285 20z m6763 -342
c4 -128 7 -404 7 -614 l0 -381 -172 -6 c-183 -7 -338 -30 -448 -67 -86 -29
-248 -111 -444 -224 -203 -118 -376 -206 -405 -206 -13 0 -20 -4 -16 -11 4 -6
23 -8 49 -4 53 8 270 67 365 100 41 14 77 23 79 20 5 -5 -13 -1000 -24 -1371
l-7 -201 -100 -6 c-67 -4 -108 -12 -125 -23 -22 -14 -32 -15 -86 -4 -33 7 -65
16 -69 20 -4 4 4 65 18 136 14 71 41 239 60 374 50 343 79 471 104 455 10 -6
51 -119 77 -210 l17 -60 13 30 c21 49 37 165 31 227 -10 112 -67 178 -154 178
-125 0 -216 -126 -260 -362 -25 -132 -24 -490 1 -641 9 -60 16 -110 14 -112
-6 -6 -177 21 -185 29 -8 7 62 2654 70 2662 3 3 63 18 134 34 197 44 352 84
668 175 258 75 316 95 525 188 129 58 240 106 246 106 7 1 13 -74 17 -231z
m3662 156 l1250 -56 205 16 c143 11 327 16 609 16 l404 0 -7 -282 c-5 -214
-10 -285 -20 -293 -19 -15 -34 -47 -51 -111 -21 -82 -9 -98 86 -115 l71 -13
-6 -50 c-3 -28 -11 -112 -17 -186 -6 -74 -12 -136 -13 -137 -1 -1 -69 9 -151
23 -83 13 -289 44 -460 69 -298 43 -332 45 -870 70 -308 15 -949 45 -1425 68
l-865 42 -3 498 c-1 273 1 497 5 497 5 0 571 -25 1258 -56z m-6808 -42 l122
-7 -172 -74 c-408 -177 -530 -220 -671 -236 l-59 -7 7 76 c3 42 9 109 12 150
l6 75 52 5 c28 3 101 12 161 20 109 15 234 14 542 -2z m-6887 -2249 c-34 -983
-62 -1788 -63 -1789 -1 -1 -51 -4 -110 -8 l-109 -6 6 63 c3 34 20 316 37 627
l30 565 34 75 c60 133 87 235 91 343 3 84 8 108 34 162 32 67 39 131 19 182
-6 15 -14 76 -19 135 -6 79 -13 116 -28 140 -11 18 -30 80 -42 138 -26 124
-59 211 -100 261 l-29 37 65 408 66 409 87 83 86 83 3 -60 c2 -33 -25 -865
-58 -1848z m8225 1490 l-7 -123 -39 0 c-55 0 -100 -21 -187 -88 l-75 -57 -101
0 c-93 0 -106 -3 -169 -32 -128 -61 -262 -217 -358 -416 l-42 -88 -26 24 c-14
14 -57 47 -96 75 -157 112 -278 159 -388 149 -71 -6 -245 -89 -412 -196 l-110
-70 -8 32 c-5 18 -12 48 -18 67 -14 56 -45 98 -88 120 -50 25 -83 25 -158 2
-70 -22 -109 -47 -228 -141 -49 -39 -114 -83 -143 -98 l-53 -26 -87 18 c-162
33 -167 32 -78 -19 173 -101 229 -98 456 28 103 58 187 93 197 82 3 -3 10 -34
15 -68 13 -100 47 -192 129 -358 131 -264 332 -585 542 -865 72 -95 82 -112
49 -82 -23 20 -50 37 -60 37 -9 0 -209 -34 -442 -75 l-425 -74 -397 6 -396 6
-43 59 c-48 66 -154 170 -246 241 -428 329 -1147 515 -1768 457 -452 -43 -969
-216 -1353 -454 -213 -132 -457 -343 -585 -506 -61 -77 -61 -77 -110 -86 -22
-3 -53 -19 -71 -34 l-31 -28 -7 -348 c-4 -191 -9 -348 -11 -350 -4 -4 -650
-24 -654 -21 -3 4 89 2721 93 2726 2 2 207 -3 456 -10 582 -18 2324 -18 2783
-1 1381 52 2251 144 2890 303 212 53 350 100 585 199 289 122 551 224 723 281
134 44 458 131 527 140 l25 4 3 -110 c2 -60 0 -165 -3 -232z m8401 328 c23
-10 44 -23 47 -28 4 -6 -41 -13 -111 -17 -64 -4 -136 -11 -159 -15 -41 -8 -43
-7 -43 16 0 56 175 85 266 44z m-396 -175 c57 -14 54 -20 -17 -30 -35 -5 -44
-3 -53 13 -19 36 -15 37 70 17z m572 -146 c15 0 18 -3 11 -12 -28 -35 -72
-287 -80 -455 l-6 -133 -41 0 c-23 -1 -113 -5 -201 -9 -88 -5 -161 -8 -163 -6
-1 1 -9 98 -17 216 -8 118 -17 244 -21 282 l-6 67 99 0 c68 0 124 6 179 21 85
22 191 39 212 33 8 -2 23 -4 34 -4z m-8582 -247 c0 -5 -11 -392 -24 -861 -14
-470 -26 -856 -29 -858 -3 -3 -19 21 -37 53 -53 95 -233 365 -327 491 -124
166 -264 330 -383 450 l-102 103 108 112 c125 131 187 186 268 239 57 36 63
38 143 38 114 0 153 21 269 144 80 85 115 112 114 89z m5343 -158 c634 -30
1275 -62 1426 -70 241 -13 312 -13 590 0 174 9 377 20 451 25 74 5 144 10 155
10 19 0 20 -4 11 -124 -5 -69 -6 -136 -2 -149 8 -35 43 -44 181 -52 66 -3 120
-7 121 -8 1 -1 -8 -92 -21 -202 -12 -110 -31 -285 -40 -390 -10 -104 -21 -198
-25 -208 -4 -14 -21 10 -65 95 -119 230 -302 547 -338 586 -30 32 -95 31 -127
-3 -22 -23 -25 -38 -31 -148 -4 -67 -8 -170 -8 -229 -1 -59 -5 -109 -10 -112
-4 -3 -34 81 -66 187 -31 106 -62 198 -67 205 -14 16 -63 16 -76 -1 -6 -7 -18
-59 -26 -115 -52 -345 -190 -637 -369 -782 -34 -28 -66 -50 -71 -50 -5 0 -6
16 -3 35 4 24 1 40 -9 50 -21 20 -22 20 -80 -19 -116 -79 -223 -199 -295 -334
l-34 -64 -1230 2 c-676 0 -1231 3 -1233 5 -3 2 7 415 22 917 14 502 26 932 26
956 l0 42 46 0 c25 0 563 -25 1197 -55z m-1446 -97 c-4 -68 -16 -493 -29 -945
l-22 -823 -698 0 -698 0 1 613 c1 336 4 700 8 807 l6 194 680 133 c374 73 687
134 695 137 8 2 26 4 39 5 l24 1 -6 -122z m-1857 -87 c58 -10 130 -26 160 -35
l55 -16 -2 -542 c-1 -299 -5 -665 -9 -814 l-6 -271 -287 -7 c-284 -7 -623 -20
-839 -32 l-114 -7 6 104 c3 57 10 379 16 714 6 336 13 656 16 712 l6 103 51
15 c84 25 365 83 452 94 113 14 370 5 495 -18z m-10530 -47 l53 -16 -9 -111
c-8 -100 -11 -259 -6 -312 1 -11 0 -78 -3 -150 -4 -121 -6 -133 -36 -192 -24
-47 -32 -75 -31 -110 1 -27 2 -80 3 -119 1 -39 -6 -106 -15 -148 -17 -77 -18
-77 -35 -54 -60 76 -98 203 -111 368 -6 71 -13 137 -16 145 -4 8 3 38 15 65
16 36 22 71 22 124 1 89 -27 288 -47 333 -11 28 -11 37 2 70 24 58 54 94 88
109 41 17 62 17 126 -2z m7111 -112 c24 -12 76 -45 114 -74 112 -82 489 -468
772 -788 143 -162 301 -340 351 -395 100 -109 101 -114 86 -227 l-6 -45 -242
-6 c-297 -7 -485 -31 -725 -92 -55 -14 -111 -29 -125 -35 -25 -9 -27 -7 -125
188 -55 108 -195 368 -311 577 -204 367 -408 761 -399 769 5 4 414 142 444
150 41 10 122 -1 166 -22z m-3000 -1563 c167 -251 199 -289 243 -289 8 0 116
32 241 71 124 39 228 69 230 67 3 -3 -58 -1978 -77 -2508 l-3 -75 -29 49 c-40
69 -169 200 -235 240 -71 44 -187 82 -271 90 -40 4 -107 1 -174 -9 -72 -10
-186 -15 -335 -15 -184 0 -243 -4 -320 -20 -105 -21 -230 -76 -313 -138 -160
-119 -331 -338 -488 -627 -69 -129 -99 -168 -116 -154 -8 6 -51 72 -95 146
-125 207 -228 304 -341 319 l-48 7 0 66 c0 36 7 372 15 745 17 743 19 703 -40
742 -26 17 -52 16 -135 -6 -135 -35 -308 38 -471 200 l-75 75 4 310 c2 171 6
311 7 313 5 6 2610 660 2631 661 17 1 57 -53 195 -260z m10879 8 c0 -1 -11
-47 -25 -102 -22 -84 -27 -135 -34 -344 -6 -154 -15 -263 -23 -291 l-14 -45
-321 -5 c-298 -5 -322 -6 -342 -24 -14 -13 -21 -31 -21 -54 0 -20 36 -177 80
-349 44 -173 80 -316 80 -318 0 -2 -44 10 -97 26 -234 70 -481 93 -620 56
-128 -34 -224 -100 -277 -190 -41 -69 -56 -148 -56 -287 0 -115 -2 -131 -25
-177 -48 -95 -165 -151 -367 -173 -233 -26 -649 25 -1014 126 -147 40 -180 39
-218 -7 -38 -45 -35 -103 13 -252 22 -67 47 -150 55 -183 20 -78 20 -206 1
-269 -14 -49 -93 -175 -108 -175 -5 0 -53 30 -108 68 -70 47 -97 72 -94 83 4
11 -6 19 -35 28 -68 20 -133 122 -241 375 -34 82 -77 168 -94 190 -105 138
-235 133 -351 -14 -26 -33 -51 -60 -55 -60 -8 0 -42 41 -224 270 -142 178
-208 245 -275 278 -54 27 -58 27 -230 25 -168 -3 -177 -2 -226 22 -59 29 -146
113 -208 199 -24 34 -87 136 -140 229 -68 116 -103 167 -115 167 -18 0 -75
109 -100 191 -22 70 -19 509 5 744 l6 60 751 0 c627 0 833 4 1237 23 267 12
717 31 1000 42 1211 47 2107 85 2803 119 15 0 27 0 27 -2z m-7933 -172 c179
-186 175 -184 289 -145 268 93 681 150 994 136 172 -7 352 -26 348 -36 -2 -4
-133 -235 -292 -513 l-290 -506 -28 52 c-96 174 -276 223 -483 132 l-51 -22
-48 43 c-79 72 -175 89 -273 49 -31 -13 -35 -12 -97 30 -92 61 -164 86 -271
92 -179 10 -307 -41 -520 -209 -21 -16 -27 -17 -96 -1 -116 25 -340 23 -453
-5 -447 -111 -708 -486 -791 -1133 -20 -159 -32 -227 -34 -184 0 17 15 507 34
1090 19 583 35 1084 35 1114 l0 54 548 -6 547 -7 380 69 c209 38 383 69 386
70 4 1 78 -73 166 -164z m-6083 -1217 c3 -106 8 -572 11 -1035 l6 -843 -39
-57 c-83 -122 -240 -245 -384 -302 -131 -52 -115 -80 -120 216 -5 222 -8 269
-26 336 -57 209 -167 337 -342 398 -54 19 -87 23 -195 23 -112 1 -140 -2 -198
-22 -212 -74 -352 -268 -412 -574 -9 -46 -18 -89 -20 -96 -3 -8 -40 13 -104
62 l-99 75 -6 773 c-4 425 -6 868 -4 983 l3 210 795 21 c437 12 870 22 961 23
l167 1 6 -192z m371 18 c128 -94 267 -146 393 -146 l62 0 0 -57 c0 -32 -5
-343 -12 -691 l-12 -633 -124 -80 c-143 -93 -299 -177 -393 -213 l-66 -25 -6
691 c-4 380 -7 826 -7 991 l0 300 53 -47 c28 -25 79 -66 112 -90z"/>
<path d="M28090 14355 l0 -225 48 0 49 0 6 152 c4 83 7 184 7 225 l0 73 -55 0
-55 0 0 -225z"/>
</g>
</svg>
