<svg viewBox="0 0 123 36" xmlns="http://www.w3.org/2000/svg" class="logo-desktop">
  <g fill="none" fill-rule="evenodd">
    <path fill="#FAE016" d="M1 35h121V1H1z"/>
    <title>L’Entrepôt du Bricolage</title>
    <path d="M0 36h123V0H0v36zm2.206-2.212h118.587V2.212H2.206v31.576z" fill="#070706"/>
    <path fill="#070706"
          d="M5 5h4.111v11.343H14V19H5zM16 11h3V5h-3zM21 5h9v2.657h-4.744v2.578h3.968v2.658h-3.968v3.45H30V19h-9zM32 5h3.91l3.433 7.853V5H43v14h-3.657l-3.714-8.428V19H32zM47.913 7.657H45V5h10v2.657h-2.913V19h-4.174zM61.143 10.651h2.715V7.657h-2.715v2.994zM57 5h7.893l2.8 1.844v3.669L65.48 11.9 68 13.269V19h-4.142v-5.73h-2.715V19H57V5zM71 5h9v2.657h-4.744v2.578h3.968v2.658h-3.968v3.45H80V19h-9zM86.262 11.603h2.476V7.657h-2.476v3.946zM82 5h7.717L93 6.924v5.413l-3.283 1.943h-3.455V19H82V5zM99.132 16.343h2.736V7.657h-2.736v8.686zM95 6.923L97.931 5h5.138L106 6.924v10.152L103.07 19H97.93L95 17.076V6.924zM110.913 7.657H108V5h10v2.657h-2.913V19h-4.174zM8.39 29.102h2.22v-6.204H8.39v6.204zM5 21h6.618L14 22.373v7.253L11.618 31H5V21zM16 21h3.39v8.102h2.22V21H25v8.627L22.618 31h-4.236L16 29.627zM34.39 29.102h2.22v-2.195h-2.22v2.195zm0-4.065h2.22v-2.139h-2.22v2.139zM31 21h6.458l2.29 1.317v2.62l-1.809.992 2.061.978v2.72L37.619 31H31V21zM44.39 25.037h2.22v-2.139h-2.22v2.139zM41 21h6.458l2.29 1.317v2.62l-1.81.992 2.062.978V31h-3.39v-4.093h-2.22V31H41V21zM52 31h4V21h-4zM66 22.373v2.451h-3.355v-1.926h-2.29v6.204h2.29v-2.394H66v2.919L63.551 31h-4.17L57 29.627v-7.254L59.38 21h4.171zM71.38 29.102h2.24v-6.204h-2.24v6.204zM68 22.373L70.399 21H74.6L77 22.373v7.253L74.601 31H70.4L68 29.626v-7.253zM79 21h3.655v8.102H87V31h-8zM94.517 27.232l-.882-4.363h-.368l-.93 4.363h2.18zM90.647 21h5.805L99 31h-3.675l-.392-1.87H91.92L91.553 31H88l2.646-10zM101.38 21h4.171L108 22.373v2.338h-3.355v-1.813h-2.29v6.204h2.29V27.63h-1.27v-1.841H108v3.839L105.551 31h-4.171L99 29.627v-7.254zM110 21h7v1.898h-3.69v1.841h3.086v1.899h-3.086v2.464H117V31h-7zM98 4h5V3h-5z"/>
  </g>
</svg>
