<svg xmlns="http://www.w3.org/2000/svg" width="261.468" height="61.086" data-name="Groupe 2" viewBox="0 0 261.468 61.086">
    <g class="name">

        <path d="M21.838 25.998h-9.672c-.38 0-.678.014-.676-.528.016-4.145.008-8.29.008-12.435h.041c0-4.189 0-8.378.007-12.567 0-.4-.173-.473-.516-.469-1.031.013-2.062 0-3.092 0s-1.024 0-1.206.975c-.048.258-.127.51-.175.768-.562 2.992-1.107 5.987-1.683 8.976-.708 3.676-1.446 7.346-2.164 11.02-.373 1.913-.728 3.829-1.1 5.743-.525 2.732-1.047 5.465-1.591 8.193-.087.437.057.539.459.538q9.837-.009 19.674 0c.393 0 .6-.107.668-.526.161-1 .355-1.985.55-2.974.386-1.956.793-3.908 1.169-5.866.165-.825.124-.848-.701-.848z" data-name="Tracé 19"/>
        <path d="M48.134 26.47a66.314 66.314 0 00.129-14.439 12.2 12.2 0 00-2.719-6.98 11.061 11.061 0 00-6.03-3.952 12.527 12.527 0 00-8.492.648c-4.122 1.99-6.3 5.481-6.861 10a26.55 26.55 0 00-.155 1.754c-.1 1.757-.06 3.519-.074 5.278.01 1.645-.01 3.29.067 4.932.025.548.062 1.1.113 1.642a12.836 12.836 0 001.355 4.826 12.055 12.055 0 0018.5 3.741 11.836 11.836 0 004.167-7.45zm-7.742-2.434a8.074 8.074 0 01-.594 2.678 3.9 3.9 0 01-6.293 1.24 4.7 4.7 0 01-1.367-2.98 58.788 58.788 0 01.095-12.987 3.834 3.834 0 012.738-3.3 3.923 3.923 0 014.129 1 4.959 4.959 0 011.224 3.188q.046.388.08.777c.158 1.815.128 3.64.135 5.461-.021 1.639-.035 3.282-.147 4.921z" data-name="Tracé 16"/>
        <path d="M110.775 34.623a8.938 8.938 0 003.824-6.334c.581-3.761.058-7.179-3.265-9.62-.376-.277-.387-.414-.038-.724a8.8 8.8 0 002.667-4.042 10.92 10.92 0 00.142-5.331 8.867 8.867 0 00-8.77-7.492c-4.735-.072-9.472-.038-14.208-.063-.568 0-.489.349-.489.7v16.908c0 5.658.007 11.316-.011 16.973 0 .581.131.814.76.81 4.452-.025 8.9-.014 13.355-.02a10.63 10.63 0 006.033-1.765zM98.614 9.438c0-.434.169-.582.585-.573.788.017 1.576 0 2.364 0 .7 0 1.4-.011 2.1 0a2.556 2.556 0 012.751 2.693 2.643 2.643 0 01-2.61 3.042c-1.552.071-3.108.037-4.662.055-.386 0-.541-.157-.537-.555q.027-2.33.009-4.662zm.556 19.257c-.421 0-.581-.118-.562-.562.034-.831.01-1.664.01-2.5 0-.854.019-1.709-.008-2.563-.014-.464.164-.611.615-.606 1.533.017 3.067 0 4.6 0a2.748 2.748 0 012.545 1.211 3.494 3.494 0 01.115 3.571 2.563 2.563 0 01-2.522 1.44c-1.597-.001-3.197-.008-4.795.009z" data-name="Tracé 11"/>
        <path d="M84.102 2.625a1.566 1.566 0 00-1.654-1.594q-2.566-.031-5.132 0a1.469 1.469 0 00-1.375.748c-.459.9-.888 1.809-1.271 2.738-.642 1.558-1.4 3.063-2.089 4.6-.789 1.752-1.672 3.463-2.439 5.228-.27.62-.576 1.225-.873 1.834-.14.287-.263.323-.415-.014q-.85-1.884-1.729-3.754c-.752-1.6-1.528-3.2-2.23-4.824-.761-1.766-1.637-3.481-2.425-5.236a1.829 1.829 0 00-1.955-1.326h-4.474c-1.439 0-2.032.6-2.032 2.039v30.86c0 .636.01 1.272 0 1.908-.009.41.132.583.576.578 2.193-.022 4.387-.038 6.579 0 .649.01.8-.2.8-.824-.024-4.979-.017-9.958-.01-14.936 0-.222-.111-.481.112-.673.171.062.227.214.295.344q1.977 3.779 3.938 7.565c.144.28.266.445.62.44 1.4-.022 2.807-.016 4.211 0a.662.662 0 00.678-.4c.53-1.032 1.085-2.052 1.621-3.081.858-1.645 1.709-3.293 2.589-4.991a.936.936 0 01.165.76c0 5 .012 10-.007 15 0 .584.133.806.766.794 2.105-.04 4.211-.018 6.316-.018.853 0 .853 0 .853-.863V3.68c.001-.353.014-.705-.009-1.055z" data-name="Tracé 10"/>
        <path d="M144.087 28.625q-1.295-3.861-2.574-7.727-1.21-3.64-2.413-7.282-.69-2.088-1.376-4.177c-.781-2.367-1.572-4.73-2.337-7.1a1.708 1.708 0 00-1.665-1.319q-1.907-.022-3.815.011a1.476 1.476 0 00-1.47 1c-.644 1.954-1.276 3.912-1.922 5.866-.776 2.348-1.564 4.692-2.342 7.038-.7 2.119-1.412 4.236-2.1 6.36a431.997 431.997 0 01-3.366 9.945c-.528 1.506-1.008 3.029-1.519 4.542-.154.454-.055.623.462.619 2.368-.019 4.736-.01 7.1.008a.646.646 0 00.733-.561c.4-1.43.865-2.845 1.276-4.274a.6.6 0 01.68-.53q4.44.023 8.88 0a.6.6 0 01.682.527c.382 1.438.807 2.865 1.195 4.3a.609.609 0 00.7.525c1.183-.02 2.368-.007 3.552-.007v.01c1.206 0 2.412-.014 3.617.007.509.008.6-.162.442-.629q-1.227-3.571-2.42-7.152zm-9.864-4.654q-2.265-.024-4.53-.005c-.438 0-.535-.136-.406-.55.824-2.648 1.733-5.27 2.421-7.96a1 1 0 01.442-.676c.27.952.523 1.866.79 2.777.564 1.929 1.118 3.862 1.715 5.781.149.481.075.633-.432.633z" data-name="Tracé 18"/>
        <path d="M174.606 36.393c.877 0 .922-.029.562-.8-.969-2.08-1.905-4.18-2.967-6.213-1.235-2.365-2.268-4.822-3.459-7.2-.205-.41-.058-.578.266-.775a9.861 9.861 0 004.433-6.113 11.792 11.792 0 00.209-4.7 11.452 11.452 0 00-3.154-6.568 9.866 9.866 0 00-7.342-2.995c-4.189-.026-8.378 0-12.566-.019-.518 0-.652.15-.65.668.02 5.658.013 11.316.013 16.975 0 5.68.007 11.361-.012 17.041 0 .542.14.713.694.706 2.127-.027 4.254-.01 6.382 0 .865 0 .865.009.865-.848 0-3.86.012-7.72-.009-11.58 0-.524.138-.709.663-.667a11.906 11.906 0 001.578 0 .575.575 0 01.64.415c.822 1.88 1.587 3.785 2.47 5.641 1 2.093 1.857 4.251 2.763 6.386a.928.928 0 00.99.655c2.543-.031 5.087-.012 7.631-.009zm-8.788-23.729a3.409 3.409 0 01-3.578 3.334c-.57.006-1.14 0-1.709 0v.006c-.7 0-1.4-.013-2.1.005-.39.01-.552-.133-.55-.533q.014-3.057 0-6.115c0-.367.14-.5.507-.5 1.446.015 2.894-.029 4.339.021a3.394 3.394 0 013.091 3.782z" data-name="Tracé 13"/>
        <path d="M200.139 4.359a10.653 10.653 0 00-8.029-3.323c-3.97-.046-7.941 0-11.911-.026-.571 0-.681.2-.679.726.018 5.638.011 11.275.011 16.912 0 5.659.008 11.319-.012 16.978 0 .607.172.784.784.779 3.6-.029 7.195-.021 10.792-.015a14.084 14.084 0 003.2-.29 10.9 10.9 0 006.461-3.849 12.387 12.387 0 002.74-7.253 95.339 95.339 0 00-.13-13.536 11.95 11.95 0 00-3.227-7.103zm-4.505 16.578a29.93 29.93 0 01-.2 3.809 4.247 4.247 0 01-3.02 3.833 4.1 4.1 0 01-1.236.154c-1.031.007-2.062-.017-3.092.013-.487.014-.641-.145-.637-.639.02-3.115.01-6.23.01-9.345 0-3.093.01-6.186-.01-9.279 0-.533.128-.748.7-.719 1.094.056 2.2-.037 3.286.07a4.089 4.089 0 014.016 4.081 76.375 76.375 0 01.183 8.022z" data-name="Tracé 14"/>
        <path d="M232.615 14.95c-.141-2.668-.291-5.318-1.563-7.792a12.272 12.272 0 00-4.868-5.088 11.884 11.884 0 00-6.605-1.356 11.272 11.272 0 00-8.117 3.756 12.066 12.066 0 00-3.125 7.093 75.488 75.488 0 00-.22 11.3 17.267 17.267 0 001.206 6.664 11.84 11.84 0 005.9 6.063 12.019 12.019 0 0015.038-4.08 11.828 11.828 0 002.043-5.2 55.393 55.393 0 00.319-7.68c.003-1.225.057-2.455-.008-3.68zm-8.287 10.39a4.761 4.761 0 01-1.354 2.7 3.959 3.959 0 01-5.667-.428 7.045 7.045 0 01-1.189-4.288 64.37 64.37 0 01.159-10.829 4.169 4.169 0 013.476-3.971 3.953 3.953 0 014.441 3 40.242 40.242 0 01.517 7.294 43.458 43.458 0 01-.383 6.522z" data-name="Tracé 17"/>
        <path d="M256.45.624q-9.837.01-19.674 0c-.393 0-.6.107-.668.526a88.323 88.323 0 01-.55 2.974c-.386 1.956-.794 3.908-1.169 5.866-.16.834-.118.857.706.857h9.673c.38 0 .678-.014.676.528-.016 4.145-.009 8.29-.009 12.435h-.041c0 4.189 0 8.378-.007 12.568 0 .4.173.474.516.47 1.031-.013 2.062 0 3.092 0s1.023 0 1.205-.975c.049-.258.127-.51.175-.768.562-2.992 1.107-5.987 1.683-8.977.708-3.676 1.446-7.346 2.164-11.02.373-1.913.728-3.829 1.1-5.743.526-2.732 1.048-5.465 1.591-8.193.082-.446-.061-.548-.463-.548z" data-name="Tracé 20"/>
    </g>
    <g class="baseline">
        <path d="M98.964 56.122a4.642 4.642 0 00.595-2.171c0-.142.047-.289-.111-.386a.756.756 0 00-1.1.534 7.4 7.4 0 01-.178.846c-.1.371-.273.442-.523.1-.384-.522-.739-1.071-1.171-1.551-.295-.327-.231-.464.084-.707a2.255 2.255 0 001.126-2.077 2.124 2.124 0 00-1.6-1.887 2.069 2.069 0 00-2.313 1.09 2.331 2.331 0 00.358 2.622c.28.377.189.542-.13.757a2.914 2.914 0 00-1.2 1.734 2.761 2.761 0 001.568 3.258 3.192 3.192 0 003.2-.576c.256-.24.4-.23.563.08.142.264.281.57.652.58.412.011.824 0 1.374 0-.432-.584-.769-1.07-1.138-1.53a.572.572 0 01-.056-.716zm-3.295-6.084a.921.921 0 01.857.872c0 .465-.628 1.19-1.022 1.177-.3-.01-.707-.682-.7-1.17a.825.825 0 01.87-.879zm1.132 6.733a2.126 2.126 0 01-1.232.408 1.573 1.573 0 01-1.331-2.507c.021-.029.044-.057.065-.087.639-.9.724-.886 1.384-.007.4.532.848 1.026 1.231 1.574.198.283.147.455-.117.619z" data-name="Tracé 21"/>
        <path d="M171.45 51.835a2.555 2.555 0 00-2.439.08c-.2.117-.233.175-.373-.079-.2-.369-.619-.171-.933-.161s-.21.323-.211.515c-.008 1.371 0 2.741-.005 4.112 0 1.443.016 2.886-.009 4.328-.01.543.334.44.647.451s.615.039.6-.448c-.028-.774-.01-1.551 0-2.326 0-.117-.07-.271.07-.345s.209.091.3.157a2.043 2.043 0 003.062-.9 7.352 7.352 0 00-.014-4.52 1.3 1.3 0 00-.695-.864zm-.428 4.614a1 1 0 01-1.055.751 1.058 1.058 0 01-1.075-.741 2.555 2.555 0 01-.1-.365 3.75 3.75 0 01-.057-.434c-.018-.229-.022-.46-.026-.691.016-.282.017-.565.049-.844.01-.093.024-.186.043-.278a2.215 2.215 0 01.107-.365 1.041 1.041 0 011.1-.7.981.981 0 011.033.778 5.971 5.971 0 01-.02 2.889z" data-name="Tracé 22"/>
        <path d="M159.221 53.683v-2.11c0-.7-.024-1.408.01-2.109.022-.447-.114-.6-.573-.58-.441.014-.717.042-.672.6.051.645 0 1.3.015 1.946.014.446-.023.617-.543.371a2.048 2.048 0 00-2.966 1.08 7.447 7.447 0 00.024 4.268 2.039 2.039 0 003.07.975c.19-.14.271-.281.445.074.187.381.649.146.984.158.315.011.2-.286.2-.458.01-1.406.006-2.815.006-4.215zm-1.333 2.587a1.162 1.162 0 01-2.3-.087 7.1 7.1 0 01-.021-2.312 1.18 1.18 0 012.355.033c.051.373.053.753.075 1.095a7.731 7.731 0 01-.109 1.267z" data-name="Tracé 23"/>
        <path d="M117.857 51.686a2.585 2.585 0 00-1.939.176c-.343.182-.435.1-.426-.269.017-.648.005-1.3.005-1.946 0-.825 0-.816-.842-.763-.266.017-.391.1-.391.383q.005 4.379 0 8.757c0 .121-.024.251.121.329a.9.9 0 001.177-.495 2.1 2.1 0 003.551-1.1 7.1 7.1 0 00-.216-4.142 1.441 1.441 0 00-1.04-.93zm.028 4.7a1.084 1.084 0 01-1.019.823 1.051 1.051 0 01-1.15-.714 4.514 4.514 0 01-.039-2.917 1.157 1.157 0 012.226.081 6.088 6.088 0 01.155 1.372 6.282 6.282 0 01-.173 1.351z" data-name="Tracé 24"/>
        <path d="M202.074 49.004a2.288 2.288 0 00-2.536.326 3.148 3.148 0 00-.962 3.093 2.361 2.361 0 002.24 2.016c.641-.025.654.058.37.647a94.46 94.46 0 00-1.3 2.844c-.053.12-.231.282 0 .414a1.125 1.125 0 001.4-.535c.6-1.386 1.186-2.779 1.836-4.141a5.416 5.416 0 00.494-2.088c-.013-.138-.029-.336-.051-.532a2.443 2.443 0 00-1.491-2.044zm.084 3.677a1.218 1.218 0 01-2.164 0 2.053 2.053 0 01.136-2.189 1.137 1.137 0 011.165-.4 1.223 1.223 0 011 .951c.039.212.062.427.086.6a2.411 2.411 0 01-.223 1.037z" data-name="Tracé 25"/>
        <path d="M214.305 52.849c-.316-.071-.786.214-.909-.134-.086-.243.209-.622.336-.939.02-.049.058-.092.08-.14.346-.771.7-1.541 1.033-2.317.057-.13.177-.305-.046-.42a1.108 1.108 0 00-1.265.447c-.558 1.247-1.107 2.5-1.673 3.74a5.181 5.181 0 00-.652 2.615c0 .114-.01.259 0 .4a2.483 2.483 0 003.891 1.944 3.253 3.253 0 001.068-3.153 2.307 2.307 0 00-1.863-2.043zm.263 3.972a1.17 1.17 0 01-1.237.331 1.375 1.375 0 01-.937-1.156 2.434 2.434 0 01-.025-.364c.007-1.2.736-1.887 1.673-1.632a.958.958 0 01.252.091 2.085 2.085 0 01.275 2.73z" data-name="Tracé 26"/>
        <path d="M207.617 52.835c-.663.009-.67 0-.393-.63.051-.115.121-.222.173-.336.394-.849.788-1.7 1.176-2.549.056-.122.153-.264-.01-.388a1.173 1.173 0 00-1.339.384c-.551 1.231-1.11 2.458-1.65 3.694a5.289 5.289 0 00-.715 2.488 2.932 2.932 0 00.726 2.237 2.658 2.658 0 003.439.134 3.391 3.391 0 00.895-2.529 2.349 2.349 0 00-2.302-2.505zm.939 3.57a1.065 1.065 0 01-.154.242 1.238 1.238 0 01-1.216.543 1.284 1.284 0 01-1.014-.865 1.967 1.967 0 01.563-2.236 1.184 1.184 0 011.03-.091 1.245 1.245 0 01.254.141 1.367 1.367 0 01.142.114 1.8 1.8 0 01.533 1.323 2 2 0 01-.138.834z" data-name="Tracé 27"/>
        <path d="M112.495 55.779v-1.083c0-.379.009-.758-.007-1.137a1.8 1.8 0 00-1.205-1.8 4.651 4.651 0 00-2.511-.03 1.367 1.367 0 00-.794.527c-.317.453.177.579.35.823.132.187.271.266.506.031a1.6 1.6 0 011.817-.252 1.187 1.187 0 01.592 1.282c-.114.5-.532.219-.81.262-.336.052-.685.015-1.026.04a2.286 2.286 0 00-1.408.624 2.111 2.111 0 00.732 3.257 2.649 2.649 0 002.2-.2c.086-.055.206-.164.268-.018.209.493.627.2.944.267.289.063.368-.1.362-.369-.02-.743-.011-1.483-.01-2.224zm-1.33.769a1.406 1.406 0 01-1.879.648.94.94 0 01-.448-1.313.887.887 0 01.762-.52 5.451 5.451 0 01.7-.006c1.01-.016 1.165.197.864 1.191z" data-name="Tracé 28"/>
        <path d="M139.205 55.774v-1.841c-.006-1.53-.52-2.166-2.022-2.331a2.9 2.9 0 00-2.357.5c-.3.257-.334.5-.016.756.237.188.355.671.827.192a1.53 1.53 0 011.777-.176 1.087 1.087 0 01.573 1.025c.037.37-.08.527-.472.518a10.679 10.679 0 00-1.566.054 1.74 1.74 0 00-1.594 1.187 2.209 2.209 0 00.507 2.31 2.667 2.667 0 002.694.211c.118-.067.326-.309.383-.111.128.446.442.256.693.3.5.093.608-.139.582-.6-.039-.657-.01-1.327-.009-1.994zm-2.131 1.475a2.242 2.242 0 01-.329.019c-.829 0-1.276-.331-1.283-.881-.008-.657.411-1.033 1.163-1.043a1.5 1.5 0 01.43 0c.323.1.871-.3.939.364.089.867-.271 1.434-.92 1.54z" data-name="Tracé 29"/>
        <path d="M66.081 55.77v-1.892c-.009-1.435-.493-2.037-1.909-2.254a3.023 3.023 0 00-2.376.412c-.238.178-.51.433-.174.755.243.233.393.707.909.23a1.57 1.57 0 011.737-.157 1.068 1.068 0 01.6 1.007c.041.39-.083.567-.5.553a8.918 8.918 0 00-1.51.033 1.946 1.946 0 00-1.443 3.04 2.286 2.286 0 002.983.7c.135-.081.347-.26.411-.107.2.485.589.206.885.274s.4-.073.394-.382c-.02-.734-.006-1.473-.007-2.212zm-2.214 1.485a3.291 3.291 0 01-.7 0 .949.949 0 01-.88-.87 1.011 1.011 0 01.813-1.009 6.01 6.01 0 01.783-.043c.352.137.931-.315.993.409.074.89-.296 1.438-1.009 1.512z" data-name="Tracé 31"/>
        <path d="M57.26 51.588a2.1 2.1 0 00-1.927 1.242 5.289 5.289 0 00-.376 3.221 2.763 2.763 0 004.453 1.854c.549-.445.537-.587.038-1.071-.346-.335-.555-.03-.79.118a1.554 1.554 0 01-2.472-.981c-.1-.426-.026-.657.479-.627.485.029.973.006 1.459.007.523 0 1.045-.009 1.568 0 .26.007.387-.051.4-.35a4.1 4.1 0 00-.625-2.472 2.213 2.213 0 00-2.207-.941zm1.146 2.857c-.305-.019-.613 0-.92 0-.325 0-.65-.008-.974 0s-.412-.14-.38-.436a1.35 1.35 0 012.7-.007c.032.32-.086.462-.426.443z" data-name="Tracé 32"/>
        <path d="M74.19 51.582a2.151 2.151 0 00-2.133 1.089 4.888 4.888 0 00-.323 3.98 2.758 2.758 0 004.327 1.227c.51-.454.473-.721-.1-1.111-.365-.25-.535.088-.743.219a1.609 1.609 0 01-2.492-1.225c-.025-.306.08-.424.388-.416.541.014 1.082 0 1.624.005.506 0 1.012-.019 1.515.007.364.019.451-.12.458-.468a4.563 4.563 0 00-.493-2.136 2.121 2.121 0 00-2.028-1.171zm.887 2.859c-.342-.007-.684 0-1.025 0-.306 0-.613-.02-.917.005-.361.03-.428-.147-.4-.452a1.377 1.377 0 011.4-1.286 1.4 1.4 0 011.3 1.4c.011.263-.124.338-.362.334z" data-name="Tracé 33"/>
        <path d="M161.612 52.255a4.582 4.582 0 00-.65 4.262c.544 1.971 1.986 2.157 3.736 1.754a2 2 0 00.938-.708c.075-.082.136-.159.087-.285a.719.719 0 00-1.146-.345 1.573 1.573 0 01-2.542-1.122c-.042-.321.044-.475.394-.464.523.017 1.046 0 1.569 0 .5 0 1.01-.011 1.515 0 .286.009.425-.058.423-.386a4.638 4.638 0 00-.549-2.391 2.551 2.551 0 00-3.775-.315zm2.779 2.181h-1.078c-.306 0-.612-.007-.917 0-.352.01-.424-.158-.368-.477a1.329 1.329 0 011.925-1.125c.542.259.643.787.77 1.286.055.213-.122.315-.333.316z" data-name="Tracé 34"/>
        <path d="M145.918 53.479a1.932 1.932 0 00-2.225-1.9 2.746 2.746 0 00-1.041.272c-.189.1-.287.142-.479-.068-.263-.288-.7-.175-1.027-.1s-.159.43-.163.658c-.019.883-.008 1.767-.008 2.651v2.921c0 .149-.086.393.116.423a2.614 2.614 0 001.016-.011c.289-.075.14-.407.143-.621.017-1.208 0-2.417.02-3.624a1.136 1.136 0 01.886-1.252 1.194 1.194 0 011.553 1.29c.026 1.154.008 2.308.01 3.462 0 .99-.067.754.811.792h.108c.224.026.333-.058.331-.3-.015-1.525.036-3.061-.051-4.593z" data-name="Tracé 35"/>
        <path d="M178.875 55.025c0-.957-.028-1.914.012-2.869.02-.478-.193-.526-.575-.513-.362.012-.661-.036-.641.513.042 1.154.018 2.309.01 3.464a1.572 1.572 0 01-.42 1.242 1.162 1.162 0 01-1.258.259 1.1 1.1 0 01-.757-1.076q-.006-1.786-.009-3.572c0-.857 0-.844-.848-.832-.312 0-.449.077-.445.425.02 1.389-.006 2.779.022 4.168a2.386 2.386 0 00.441 1.424 2.216 2.216 0 002.912.423c.138-.095.28-.36.4.027.166.516.6.211.9.25.37.047.24-.283.242-.465.022-.956.016-1.912.014-2.868z" data-name="Tracé 37"/>
        <path d="M82.354 51.655c-.376-.066-.5.083-.495.472.023 1.191.013 2.383.007 3.574-.005.913-.513 1.5-1.285 1.5-.727 0-1.217-.587-1.22-1.476v-3.3c0-.809-.082-.872-.9-.774-.217.026-.32.094-.317.331.025 1.533-.075 3.07.053 4.6a2.068 2.068 0 003.313 1.479c.2-.143.274-.2.4.11.178.454.628.158.949.192.3.032.218-.27.22-.45.007-.957 0-1.913 0-2.87 0-.975-.026-1.951.009-2.924.025-.661-.43-.41-.734-.464z" data-name="Tracé 38"/>
        <path d="M186.863 54.452c-.432-.112-.9-.09-1.341-.167-.408-.071-.776-.239-.8-.736a.858.858 0 01.839-.832 2.591 2.591 0 011.522.272c.573.295.654-.29.866-.538.251-.295-.106-.468-.31-.546a4.427 4.427 0 00-2.282-.289 1.953 1.953 0 00-1.737 2.609 1.286 1.286 0 00.87 1 9.028 9.028 0 001.859.319.852.852 0 01.782.641.731.731 0 01-.5.862 2.037 2.037 0 01-2.02-.1c-.521-.333-.783-.213-1.15.208-.255.293-.155.4.05.591a2.907 2.907 0 002.18.681 4.236 4.236 0 001.213-.119 2.137 2.137 0 001.453-2.051 1.664 1.664 0 00-1.494-1.805z" data-name="Tracé 39"/>
        <path d="M132.798 56.728c-.219-.175-.353.1-.5.195a1.357 1.357 0 01-2.113-.675 3.631 3.631 0 01-.1-2.289 1.392 1.392 0 012.383-.752c.189.143.3.15.442-.037a1.849 1.849 0 01.315-.367c.292-.23.247-.415 0-.657a2.922 2.922 0 00-3.412-.057 3.353 3.353 0 00-1.038 2.5 5.121 5.121 0 00.6 2.776 2.615 2.615 0 003.943.324c.065-.085.2-.185.138-.266a4.3 4.3 0 00-.658-.695z" data-name="Tracé 40"/>
        <path d="M195.308 48.871c-.76-.1-1.112.431-1.592.824a1.784 1.784 0 00-.739 2.134c.454-.147.685-.555 1-.866.15-.15.28-.4.51-.3.181.072.083.323.083.493.005 2.234 0 4.468.008 6.7 0 .175-.111.406.164.508.66.245 1.093-.047 1.08-.729-.006-.342-.007-.685-.006-1.027 0-2.4 0-4.792.017-7.188.001-.403-.137-.496-.525-.549z" data-name="Tracé 41"/>
        <path d="M48.015 53.168c.222.185.421.206.529-.028.134-.29.744-.412.34-.911a2.889 2.889 0 00-3.392-.2 3.324 3.324 0 00-1.1 2.706 3.974 3.974 0 00.568 2.6 2.633 2.633 0 003.79.548c.406-.386.217-.587-.042-.889s-.444-.363-.8-.1a1.323 1.323 0 01-2.133-.674 3.506 3.506 0 01-.023-2.44 1.357 1.357 0 012.263-.612z" data-name="Tracé 42"/>
        <path d="M106.363 51.757c-.467.03-.618-.151-.56-.587a2.851 2.851 0 00.008-.432c-.01-.444.232-.716.646-.7.509.021.581-.226.518-.622-.035-.219.145-.528-.251-.609a1.754 1.754 0 00-2.066 1.16 3.77 3.77 0 00-.137 1.39c0 .216 0 .407-.3.387-.462-.03-.336.319-.347.563s-.068.549.344.51c.295-.028.31.139.307.367-.01.793 0 1.587 0 2.381 0 .582.021 1.165.01 1.746 0 .194-.011.387-.023.58-.035.534.269.493.6.474s.724.16.706-.478c-.043-1.478 0-2.958-.027-4.436-.011-.522.153-.719.674-.647.167.023.4.119.5-.166.19-.546-.034-.913-.602-.881z" data-name="Tracé 43"/>
        <path d="M70.42 57.512c.031-.224-.081-.31-.306-.338-.723-.092-.865-.259-.871-1-.007-.81 0-1.621 0-2.432 0-.839 0-.859.855-.915.425-.028.318-.309.322-.536s.107-.51-.313-.545c-.865-.071-.863-.089-.863-.959v-.324c0-.818 0-.806-.845-.772-.3.012-.424.108-.41.414.018.413-.008.829.015 1.242.015.269-.055.428-.345.407-.414-.031-.356.263-.35.507s-.1.589.352.566c.307-.016.344.158.338.411-.014.558 0 1.117 0 1.675s-.028 1.119.007 1.675a1.834 1.834 0 00.946 1.65 1.693 1.693 0 001.365.072c.248-.098.064-.527.103-.798z" data-name="Tracé 44"/>
        <path d="M150.271 57.534c.04-.277-.077-.365-.364-.375-.63-.021-.772-.192-.775-.837 0-1.01.021-2.022-.012-3.031-.013-.395.113-.522.482-.477a2.784 2.784 0 00.379 0c.493-.009.248-.389.281-.6s.093-.461-.308-.471c-.824-.02-.823-.045-.823-.876v-.379c-.008-.969.113-.748-.8-.806-.335-.021-.456.105-.447.429.011.4-.017.794 0 1.19.013.316-.083.48-.425.451-.481-.042-.322.327-.332.56s-.106.555.331.5c.341-.04.436.126.425.445-.019.541-.005 1.082-.005 1.624h.037c0 .648-.044 1.3.013 1.945a1.6 1.6 0 00.917 1.431 1.934 1.934 0 001.322.072c.252-.076.065-.521.104-.795z" data-name="Tracé 45"/>
        <path d="M54.152 51.734a2.6 2.6 0 00-2.185.18c-.153.077-.208.19-.351-.058-.237-.41-.682-.2-1.025-.17-.311.023-.178.345-.181.537-.012.92-.005 1.84-.005 2.76 0 .717.02 1.435.009 2.151 0 .239-.01.477-.022.716-.029.583.3.513.675.532.408.021.622-.035.606-.539a81.505 81.505 0 01-.013-3.733c.013-.945.911-1.658 1.622-1.224.609.371.817.054 1.1-.334.334-.456.293-.615-.23-.818z" data-name="Tracé 47"/>
        <path d="M88.889 51.841a2.462 2.462 0 00-2.334.049c-.195.1-.287.245-.476-.085-.178-.313-.626-.164-.951-.118-.289.042-.172.318-.173.494-.011.956-.005 1.912-.005 2.869 0 .92.023 1.841-.01 2.76-.016.451.115.589.572.578.442-.011.677-.042.656-.6a57.156 57.156 0 010-3.68 1.216 1.216 0 011.742-1.183c.43.274.6.1.831-.174.094-.11.183-.224.28-.33.224-.252.178-.429-.132-.58z" data-name="Tracé 48"/>
        <path d="M124.694 51.788a2.572 2.572 0 00-2.243.091c-.171.087-.283.267-.474-.083s-.658-.142-.994-.109c-.271.027-.164.319-.166.5-.009.954 0 1.909 0 2.864 0 .662.02 1.325.01 1.987 0 .22-.011.441-.023.661-.03.539.1.719.667.7.46-.019.662-.1.6-.6a8.574 8.574 0 01-.012-1.08c0-.883-.026-1.767.018-2.647a1.189 1.189 0 011.891-1.048c.2.122.318.1.456-.057a4.662 4.662 0 01.435-.476c.384-.346.204-.55-.165-.703z" data-name="Tracé 49"/>
        <path d="M126.551 51.652c-.333-.039-.584-.019-.565.458q.014.365.017.729c.008.73-.006 1.461-.006 2.191v1.46c0 .487 0 .974-.011 1.46-.007.331.093.468.427.426a1.907 1.907 0 01.432 0c.3.032.406-.086.4-.4-.013-1.965-.023-3.93 0-5.895.016-.612-.4-.395-.694-.429z" data-name="Tracé 51"/>
        <path d="M181.978 52.048c0-.579-.414-.366-.687-.391s-.572-.092-.555.4c.036.988.011 1.979.011 2.969 0 .846-.009 1.692 0 2.537.013.947-.183.783.825.819.307.011.412-.086.41-.393q-.015-2.972-.004-5.941z" data-name="Tracé 52"/>
        <path d="M98 4h5V3h-5z" data-name="Tracé 53"/>
        <path d="M57.42 50.369a.562.562 0 00.657-.337 15.662 15.662 0 01.879-1.421c.167-.247.072-.306-.164-.341-.881-.13-1.058-.022-1.351.806-.1.271-.224.53-.339.794-.144.33-.164.579.318.499z" data-name="Tracé 53"/>
    </g>
</svg>
